<svg id="Layer_1" data-name="Layer 1" xmlns="http://www.w3.org/2000/svg" viewBox="0 0 160 49"><defs><style>.cls-1{fill:#346eb6;}.cls-2{fill:#fff;}.cls-3{fill:none;stroke:#272525;stroke-miterlimit:10;stroke-width:0.5px;}.cls-4{fill:#efd233;}.cls-5{fill:#000100;}</style></defs><title>logo</title><path class="cls-1" d="M63,5.81A11.43,11.43,0,1,0,74.46,17.24,11.44,11.44,0,0,0,63,5.81Z"/><path class="cls-1" d="M63,3.49H22.09A13.68,13.68,0,0,0,8.42,17.16h0a13.5,13.5,0,0,0,13.5,13.5H63.21a13.5,13.5,0,0,0,13.5-13.5h0A13.68,13.68,0,0,0,63,3.49Zm0,26A12.21,12.21,0,1,1,75.25,17.24,12.22,12.22,0,0,1,63,29.45Z"/><path class="cls-2" d="M63,5A12.21,12.21,0,1,0,75.25,17.24,12.22,12.22,0,0,0,63,5Zm0,23.63A11.43,11.43,0,1,1,74.46,17.24,11.44,11.44,0,0,1,63,28.66Z"/><line class="cls-3" x1="17.08" y1="34.27" x2="107.16" y2="34.27"/><path class="cls-4" d="M22.55,19.22h-2a1.53,1.53,0,0,0-1.53,1.53v3.8a2.5,2.5,0,0,1-.54,1.74,1.9,1.9,0,0,1-2.75,0,2.49,2.49,0,0,1-.53-1.72V10.05a2.37,2.37,0,0,1,.58-1.8,2.63,2.63,0,0,1,1.84-.54h4.9A12.85,12.85,0,0,1,25.9,8a5,5,0,0,1,2,1.07,4.81,4.81,0,0,1,1.28,1.83,6.43,6.43,0,0,1,.44,2.43,5.37,5.37,0,0,1-1.78,4.37A8.08,8.08,0,0,1,22.55,19.22Zm-.93-8.64h-1a1.53,1.53,0,0,0-1.53,1.53v2.69a1.53,1.53,0,0,0,1.53,1.53h1a7.68,7.68,0,0,0,2.26-.28,2.63,2.63,0,0,0,1.38-.93,2.77,2.77,0,0,0,.48-1.69,2.86,2.86,0,0,0-.73-2Q24.19,10.58,21.63,10.58Z"/><path class="cls-4" d="M39.26,18.5H37.92v6.06a2.52,2.52,0,0,1-.53,1.76,1.79,1.79,0,0,1-1.38.57,1.75,1.75,0,0,1-1.41-.59,2.62,2.62,0,0,1-.5-1.74V10.05a2.45,2.45,0,0,1,.55-1.79,2.45,2.45,0,0,1,1.79-.55h6.21a18.84,18.84,0,0,1,2.2.11,5.52,5.52,0,0,1,1.65.44,4.77,4.77,0,0,1,1.57,1.07,4.68,4.68,0,0,1,1,1.61,5.38,5.38,0,0,1,.35,1.95,4.71,4.71,0,0,1-1.19,3.37,6.83,6.83,0,0,1-3.61,1.79,7,7,0,0,1,1.94,1.59,16.18,16.18,0,0,1,1.65,2.25A16.57,16.57,0,0,1,49.39,24a4.25,4.25,0,0,1,.4,1.32,1.35,1.35,0,0,1-.24.74,1.67,1.67,0,0,1-.65.58,2.05,2.05,0,0,1-1,.21,1.85,1.85,0,0,1-1.08-.3,2.9,2.9,0,0,1-.75-.77q-.32-.46-.86-1.36l-1.53-2.55a14,14,0,0,0-1.47-2.14,3.64,3.64,0,0,0-1.32-1A4.54,4.54,0,0,0,39.26,18.5Zm2.19-7.92h-2a1.53,1.53,0,0,0-1.53,1.53v2.11a1.53,1.53,0,0,0,1.53,1.53h1.89a9.6,9.6,0,0,0,2.32-.24,2.71,2.71,0,0,0,1.43-.81,2.33,2.33,0,0,0,.5-1.58,2.38,2.38,0,0,0-1.51-2.28A8,8,0,0,0,41.44,10.58Z"/><path class="cls-2" d="M68.44,18.49H60.39a1.55,1.55,0,0,0-1.48,2,5.85,5.85,0,0,0,.41,1,4.61,4.61,0,0,0,4.24,2.63,6,6,0,0,0,1.64-.21,5.37,5.37,0,0,0,1.44-.66,11.06,11.06,0,0,0,1.29-1q.59-.51,1.53-1.4a1.65,1.65,0,0,1,1.1-.33A1.82,1.82,0,0,1,71.8,21a1.51,1.51,0,0,1,.48,1.19,3.26,3.26,0,0,1-.53,1.59,6.31,6.31,0,0,1-1.61,1.75,9.16,9.16,0,0,1-2.7,1.39,11.65,11.65,0,0,1-3.74.55q-4.83,0-7.52-2.76a10.26,10.26,0,0,1-2.68-7.48,12.48,12.48,0,0,1,.66-4.13,9.11,9.11,0,0,1,1.93-3.26,8.38,8.38,0,0,1,3.12-2.09A11.21,11.21,0,0,1,63.33,7a9.76,9.76,0,0,1,5,1.24,8.16,8.16,0,0,1,3.15,3.21,8.43,8.43,0,0,1,1,4q0,1.89-1.08,2.45A6.76,6.76,0,0,1,68.44,18.49Zm-7.93-2.85H65.9a1.54,1.54,0,0,0,1.48-2,4.71,4.71,0,0,0-1-1.87,4.16,4.16,0,0,0-3.17-1.28,4,4,0,0,0-3.08,1.3,5,5,0,0,0-1,1.82A1.54,1.54,0,0,0,60.51,15.64Z"/><path class="cls-5" d="M85,23.73,83.55,18a.8.8,0,0,0-1.57.2v6.57a2.37,2.37,0,0,1-.48,1.62,1.77,1.77,0,0,1-2.54,0,2.35,2.35,0,0,1-.49-1.63V9.81a1.87,1.87,0,0,1,.64-1.67,3.08,3.08,0,0,1,1.74-.43H82a4.51,4.51,0,0,1,1.55.19,1.3,1.3,0,0,1,.71.69,10.83,10.83,0,0,1,.53,1.63l2,7.42a.8.8,0,0,0,1.54,0l2-7.42a10.76,10.76,0,0,1,.53-1.63,1.3,1.3,0,0,1,.71-.69,4.51,4.51,0,0,1,1.55-.19h1.18A3.08,3.08,0,0,1,96,8.14a1.87,1.87,0,0,1,.64,1.67V24.73a2.37,2.37,0,0,1-.48,1.62,1.65,1.65,0,0,1-1.29.54,1.61,1.61,0,0,1-1.25-.54,2.35,2.35,0,0,1-.49-1.62V18.16A.8.8,0,0,0,91.57,18l-1.45,5.76q-.3,1.17-.48,1.72a2.37,2.37,0,0,1-.69,1,2,2,0,0,1-1.39.45,2,2,0,0,1-1.85-1,4.19,4.19,0,0,1-.41-1Z"/><path class="cls-1" d="M85,23.73,83.55,18a.8.8,0,0,0-1.57.2v6.57a2.37,2.37,0,0,1-.48,1.62,1.77,1.77,0,0,1-2.54,0,2.35,2.35,0,0,1-.49-1.63V9.81a1.87,1.87,0,0,1,.64-1.67,3.08,3.08,0,0,1,1.74-.43H82a4.51,4.51,0,0,1,1.55.19,1.3,1.3,0,0,1,.71.69,10.83,10.83,0,0,1,.53,1.63l2,7.42a.8.8,0,0,0,1.54,0l2-7.42a10.76,10.76,0,0,1,.53-1.63,1.3,1.3,0,0,1,.71-.69,4.51,4.51,0,0,1,1.55-.19h1.18A3.08,3.08,0,0,1,96,8.14a1.87,1.87,0,0,1,.64,1.67V24.73a2.37,2.37,0,0,1-.48,1.62,1.65,1.65,0,0,1-1.29.54,1.61,1.61,0,0,1-1.25-.54,2.35,2.35,0,0,1-.49-1.62V18.16A.8.8,0,0,0,91.57,18l-1.45,5.76q-.3,1.17-.48,1.72a2.37,2.37,0,0,1-.69,1,2,2,0,0,1-1.39.45,2,2,0,0,1-1.85-1,4.19,4.19,0,0,1-.41-1Z"/><path class="cls-1" d="M139.17,23.73,137.72,18a.8.8,0,0,0-1.57.2v6.57a2.37,2.37,0,0,1-.48,1.62,1.77,1.77,0,0,1-2.54,0,2.35,2.35,0,0,1-.49-1.63V9.81a1.87,1.87,0,0,1,.64-1.67A3.08,3.08,0,0,1,135,7.71h1.18a4.51,4.51,0,0,1,1.55.19,1.3,1.3,0,0,1,.71.69,10.83,10.83,0,0,1,.53,1.63l2,7.42a.8.8,0,0,0,1.54,0l2-7.42A10.76,10.76,0,0,1,145,8.6a1.3,1.3,0,0,1,.71-.69,4.51,4.51,0,0,1,1.55-.19h1.18a3.08,3.08,0,0,1,1.74.43,1.87,1.87,0,0,1,.64,1.67V24.73a2.37,2.37,0,0,1-.48,1.62,1.65,1.65,0,0,1-1.29.54,1.61,1.61,0,0,1-1.25-.54,2.35,2.35,0,0,1-.49-1.62V18.16a.8.8,0,0,0-1.57-.19l-1.45,5.76q-.3,1.17-.48,1.72a2.37,2.37,0,0,1-.69,1,2,2,0,0,1-1.39.45,2,2,0,0,1-1.85-1,4.19,4.19,0,0,1-.41-1Z"/><path class="cls-1" d="M102.05,24.56V9.7A2.51,2.51,0,0,1,102.58,8a1.76,1.76,0,0,1,1.36-.58,1.82,1.82,0,0,1,1.4.57,2.48,2.48,0,0,1,.53,1.74V24.56a2.5,2.5,0,0,1-.53,1.75,1.81,1.81,0,0,1-1.4.58,1.76,1.76,0,0,1-1.36-.59A2.51,2.51,0,0,1,102.05,24.56Z"/><path class="cls-1" d="M111.49,18.77V9.7A2.53,2.53,0,0,1,112,8a1.76,1.76,0,0,1,1.37-.58,1.8,1.8,0,0,1,1.41.58,2.53,2.53,0,0,1,.52,1.74V19a8.46,8.46,0,0,0,.35,2.64,3.05,3.05,0,0,0,1.25,1.65,4.61,4.61,0,0,0,2.52.59,3.78,3.78,0,0,0,3.16-1.19,5.83,5.83,0,0,0,.93-3.61V9.7A2.54,2.54,0,0,1,124,8a1.76,1.76,0,0,1,1.38-.57,1.82,1.82,0,0,1,1.4.57,2.48,2.48,0,0,1,.53,1.74v9.07a13.42,13.42,0,0,1-.43,3.69,5.71,5.71,0,0,1-1.63,2.6,6.32,6.32,0,0,1-2.39,1.39,10.47,10.47,0,0,1-3.19.44,13.14,13.14,0,0,1-3.74-.47A6,6,0,0,1,113.41,25,5.87,5.87,0,0,1,112,22.45,12.84,12.84,0,0,1,111.49,18.77Z"/><path class="cls-1" d="M115.55,30.66h2.58V38a3.52,3.52,0,0,1-.48,1.83,3.25,3.25,0,0,1-1.33,1.25,4.07,4.07,0,0,1-1.9.44,3.92,3.92,0,0,1-2.73-.89,3.22,3.22,0,0,1-1-2.51h2.6a1.77,1.77,0,0,0,.25,1.07,1,1,0,0,0,.85.33,1,1,0,0,0,.83-.4,1.89,1.89,0,0,0,.29-1.13Z"/><path class="cls-1" d="M129.61,36.26A6.34,6.34,0,0,1,129,39a4.3,4.3,0,0,1-1.66,1.86,4.62,4.62,0,0,1-2.45.65,4.68,4.68,0,0,1-2.44-.63,4.3,4.3,0,0,1-1.66-1.81,6.16,6.16,0,0,1-.62-2.7v-.61a6.38,6.38,0,0,1,.58-2.79,4.3,4.3,0,0,1,1.66-1.86,4.92,4.92,0,0,1,4.9,0A4.38,4.38,0,0,1,129,33a6.18,6.18,0,0,1,.6,2.75ZM127,35.81a4.53,4.53,0,0,0-.54-2.43,1.72,1.72,0,0,0-1.53-.83q-1.95,0-2.06,2.92v.79a4.65,4.65,0,0,0,.52,2.43,1.72,1.72,0,0,0,1.56.85,1.69,1.69,0,0,0,1.51-.83,4.52,4.52,0,0,0,.54-2.4Z"/><path class="cls-1" d="M131.69,41.41V30.66h3.86a5.47,5.47,0,0,1,3.16.76,2.53,2.53,0,0,1,1.08,2.21,2.56,2.56,0,0,1-.38,1.42,2.24,2.24,0,0,1-1.13.87,2.26,2.26,0,0,1,1.29.83,2.4,2.4,0,0,1,.45,1.48,2.85,2.85,0,0,1-1,2.37,4.76,4.76,0,0,1-3,.81Zm2.59-6.27h1.35a1.92,1.92,0,0,0,1.21-.31,1.11,1.11,0,0,0,.36-.9,1.16,1.16,0,0,0-.39-1,2.1,2.1,0,0,0-1.26-.3h-1.27Zm0,1.7v2.58H136a1.61,1.61,0,0,0,1.08-.32,1.12,1.12,0,0,0,.38-.9,1.19,1.19,0,0,0-1.34-1.35Z"/><path class="cls-1" d="M147.73,38.56a1.07,1.07,0,0,0-.4-.89,5,5,0,0,0-1.42-.66,13.53,13.53,0,0,1-1.65-.66,3.13,3.13,0,0,1-2.09-2.82,2.53,2.53,0,0,1,.52-1.58,3.37,3.37,0,0,1,1.47-1.06,5.75,5.75,0,0,1,2.14-.38,5,5,0,0,1,2.08.41,3.3,3.3,0,0,1,1.43,1.18,3.08,3.08,0,0,1,.51,1.75h-2.58a1.3,1.3,0,0,0-.4-1,1.57,1.57,0,0,0-1.09-.36,1.76,1.76,0,0,0-1.1.31.9.9,0,0,0,0,1.53,5.63,5.63,0,0,0,1.56.69,9.54,9.54,0,0,1,1.83.77,3.08,3.08,0,0,1,1.74,2.77,2.63,2.63,0,0,1-1.06,2.22,4.73,4.73,0,0,1-2.92.8,5.79,5.79,0,0,1-2.37-.47,3.57,3.57,0,0,1-1.6-1.29,3.35,3.35,0,0,1-.54-1.88h2.6a1.65,1.65,0,0,0,.45,1.27,2.11,2.11,0,0,0,1.45.41,1.67,1.67,0,0,0,1-.28A.92.92,0,0,0,147.73,38.56Z"/><path class="cls-2" d="M20,37.76H18.78v3.75h-.31V37.76H17.21v-.29H20Z"/><path class="cls-2" d="M23.37,41.51h-.31V39.58h-2.1v1.94h-.31v-4h.31v1.82h2.1V37.47h.31Z"/><path class="cls-2" d="M26.34,39.58H24.61v1.65h2v.29H24.3v-4h2.28v.29h-2v1.53h1.72Z"/><path class="cls-2" d="M29.88,39.83H28.81v1.68H28.5v-4h1.2a1.29,1.29,0,0,1,.92.31,1.15,1.15,0,0,1,.33.88,1.16,1.16,0,0,1-.21.68,1.06,1.06,0,0,1-.56.41l.92,1.72v0h-.33Zm-1.07-.29h1a.84.84,0,0,0,.63-.25,1,1,0,0,0,0-1.3,1,1,0,0,0-.7-.24h-.88Z"/><path class="cls-2" d="M32.17,41.51h-.31v-4h.31Z"/><path class="cls-2" d="M35.83,41a1.05,1.05,0,0,1-.51.39,2,2,0,0,1-.77.14,1.34,1.34,0,0,1-.77-.23,1.48,1.48,0,0,1-.52-.64,2.35,2.35,0,0,1-.19-1v-.51a2.08,2.08,0,0,1,.39-1.33,1.26,1.26,0,0,1,1-.49,1.3,1.3,0,0,1,.92.32,1.36,1.36,0,0,1,.41.88h-.31a1.08,1.08,0,0,0-.33-.68,1,1,0,0,0-.68-.23,1,1,0,0,0-.82.4,1.87,1.87,0,0,0-.3,1.14v.48a2.18,2.18,0,0,0,.14.82,1.23,1.23,0,0,0,.41.55,1,1,0,0,0,.61.19,1.57,1.57,0,0,0,.69-.14.74.74,0,0,0,.28-.21v-1h-1V39.6h1.3Z"/><path class="cls-2" d="M39.44,41.51h-.31V39.58H37v1.94h-.31v-4H37v1.82h2.1V37.47h.31Z"/><path class="cls-2" d="M42.81,37.76H41.54v3.75h-.31V37.76H40v-.29h2.83Z"/><path class="cls-2" d="M44.87,39.87v1.65h-.31v-4h1.25a1.25,1.25,0,0,1,.91.32,1.36,1.36,0,0,1,0,1.76,1.28,1.28,0,0,1-.93.31Zm0-.29h.94a.94.94,0,0,0,.69-.24.89.89,0,0,0,.24-.66A.93.93,0,0,0,46.5,38a.9.9,0,0,0-.67-.25h-1Z"/><path class="cls-2" d="M48.06,41.23h1.82v.29H47.75v-4h.31Z"/><path class="cls-2" d="M52.51,40.38H50.84l-.38,1.14h-.33l1.39-4h.3l1.39,4h-.32Zm-1.58-.29h1.48l-.74-2.2Z"/><path class="cls-2" d="M56.34,40.25a1.51,1.51,0,0,1-.42,1,1.3,1.3,0,0,1-.94.34,1.22,1.22,0,0,1-.72-.22,1.44,1.44,0,0,1-.49-.64,2.47,2.47,0,0,1-.17-.94v-.52a2.49,2.49,0,0,1,.17-1,1.43,1.43,0,0,1,.5-.64,1.38,1.38,0,0,1,1.68.12,1.53,1.53,0,0,1,.4,1H56q-.12-1-1-1a.93.93,0,0,0-.8.41,1.91,1.91,0,0,0-.3,1.14v.5a1.92,1.92,0,0,0,.29,1.12.91.91,0,0,0,.78.42,1,1,0,0,0,.74-.26,1.29,1.29,0,0,0,.31-.77Z"/><path class="cls-2" d="M59.13,39.58H57.41v1.65h2v.29H57.1v-4h2.28v.29h-2v1.53h1.72Z"/><path class="cls-2" d="M59.91,42.27l-.18-.14a1.28,1.28,0,0,0,.24-.7V41h.3v.35A1.25,1.25,0,0,1,59.91,42.27Z"/><path class="cls-2" d="M64.28,40.38H62.61l-.38,1.14H61.9l1.39-4h.3l1.39,4h-.32Zm-1.58-.29h1.48l-.74-2.2Z"/><path class="cls-2" d="M67.7,37.76H66.44v3.75h-.31V37.76H64.87v-.29H67.7Z"/><path class="cls-2" d="M71.85,37.76H70.59v3.75h-.31V37.76H69v-.29h2.83Z"/><path class="cls-2" d="M75.17,41.51h-.31V39.58h-2.1v1.94h-.31v-4h.31v1.82h2.1V37.47h.31Z"/><path class="cls-2" d="M78.14,39.58H76.42v1.65h2v.29H76.11v-4h2.28v.29h-2v1.53h1.72Z"/><path class="cls-2" d="M81.69,39.83H80.62v1.68h-.31v-4h1.2a1.29,1.29,0,0,1,.92.31,1.15,1.15,0,0,1,.33.88,1.16,1.16,0,0,1-.21.68,1.06,1.06,0,0,1-.56.41l.92,1.72v0h-.33Zm-1.07-.29h1a.84.84,0,0,0,.63-.25,1,1,0,0,0,0-1.3,1,1,0,0,0-.7-.24h-.88Z"/><path class="cls-2" d="M84,41.51h-.31v-4H84Z"/><path class="cls-2" d="M87.64,41a1.05,1.05,0,0,1-.51.39,2,2,0,0,1-.77.14,1.34,1.34,0,0,1-.77-.23,1.48,1.48,0,0,1-.52-.64,2.35,2.35,0,0,1-.19-1v-.51a2.08,2.08,0,0,1,.39-1.33,1.26,1.26,0,0,1,1-.49,1.3,1.3,0,0,1,.92.32,1.36,1.36,0,0,1,.41.88h-.31a1.08,1.08,0,0,0-.33-.68,1,1,0,0,0-.68-.23,1,1,0,0,0-.82.4,1.87,1.87,0,0,0-.3,1.14v.48a2.18,2.18,0,0,0,.14.82,1.23,1.23,0,0,0,.41.55,1,1,0,0,0,.61.19,1.57,1.57,0,0,0,.69-.14.74.74,0,0,0,.28-.21v-1h-1V39.6h1.3Z"/><path class="cls-2" d="M91.25,41.51h-.31V39.58h-2.1v1.94h-.31v-4h.31v1.82h2.1V37.47h.31Z"/><path class="cls-2" d="M94.61,37.76H93.35v3.75H93V37.76H91.78v-.29h2.83Z"/><path class="cls-2" d="M98.76,37.76H97.5v3.75h-.31V37.76H95.93v-.29h2.83Z"/><path class="cls-2" d="M99.74,41.51h-.31v-4h.31Z"/><path class="cls-2" d="M101.15,37.47,102.51,41l1.36-3.57h.41v4H104V39.75l0-1.8-1.37,3.56h-.24L101,38l0,1.78v1.77h-.31v-4Z"/><path class="cls-2" d="M107.25,39.58h-1.72v1.65h2v.29h-2.29v-4h2.28v.29h-2v1.53h1.72Z"/></svg>