<svg id="Layer_1" data-name="Layer 1" xmlns="http://www.w3.org/2000/svg" viewBox="0 0 195 60"><defs><style>.cls-1{fill:#346eb6;}.cls-2{fill:#fff;}.cls-3{fill:none;stroke:#272525;stroke-miterlimit:10;stroke-width:0.3px;}.cls-4{fill:#efd233;}.cls-5{fill:#000100;}</style></defs><title>pemium job logo</title><polygon class="cls-1" points="190.75 1.38 190.75 1.36 75.51 1.36 73.16 1.36 73.16 3.77 73.16 10.16 75.51 10.16 75.51 3.77 189.58 3.77 189.58 46.21 183.77 46.21 183.77 48.7 189.58 48.7 190.53 48.7 191.93 48.7 191.93 1.38 190.75 1.38"/><path class="cls-1" d="M73.05,12.65a14.7,14.7,0,1,0,14.7,14.7A14.72,14.72,0,0,0,73.05,12.65Z"/><path class="cls-1" d="M73.06,9.65H20.37a17.6,17.6,0,0,0-17.6,17.6h0A17.38,17.38,0,0,0,20.15,44.63H73.28A17.38,17.38,0,0,0,90.65,27.25h0A17.6,17.6,0,0,0,73.06,9.65Zm0,33.4A15.71,15.71,0,1,1,88.76,27.35,15.73,15.73,0,0,1,73.05,43.06Z"/><path class="cls-2" d="M73.05,11.64A15.71,15.71,0,1,0,88.76,27.35,15.73,15.73,0,0,0,73.05,11.64Zm0,30.41a14.7,14.7,0,1,1,14.7-14.7A14.72,14.72,0,0,1,73.05,42Z"/><line class="cls-3" x1="13.92" y1="48.17" x2="129.82" y2="48.17"/><path class="cls-4" d="M21,29.9H18.44a2,2,0,0,0-2,2v4.89A3.21,3.21,0,0,1,15.77,39a2.28,2.28,0,0,1-1.75.76A2.29,2.29,0,0,1,12.23,39a3.2,3.2,0,0,1-.68-2.21V18.1a3.05,3.05,0,0,1,.74-2.32,3.39,3.39,0,0,1,2.37-.7H21a16.54,16.54,0,0,1,4.3.43,6.42,6.42,0,0,1,2.57,1.37,6.19,6.19,0,0,1,1.65,2.35,8.27,8.27,0,0,1,.56,3.13A6.91,6.91,0,0,1,27.77,28Q25.48,29.9,21,29.9ZM19.77,18.78H18.44a2,2,0,0,0-2,2v3.47a2,2,0,0,0,2,2h1.34a9.88,9.88,0,0,0,2.9-.36,3.39,3.39,0,0,0,1.78-1.19,3.56,3.56,0,0,0,.61-2.17,3.68,3.68,0,0,0-.94-2.62Q23.07,18.78,19.77,18.78Z"/><path class="cls-4" d="M42.46,29H40.73v7.8A3.24,3.24,0,0,1,40.06,39a2.31,2.31,0,0,1-1.77.73A2.26,2.26,0,0,1,36.46,39a3.37,3.37,0,0,1-.65-2.24V18.1a3.16,3.16,0,0,1,.71-2.3,3.16,3.16,0,0,1,2.3-.71h8a24.23,24.23,0,0,1,2.83.14,7.1,7.1,0,0,1,2.12.57,6.14,6.14,0,0,1,2,1.37,6,6,0,0,1,1.33,2.08,6.93,6.93,0,0,1,.45,2.51A6.06,6.06,0,0,1,54,26.09a8.79,8.79,0,0,1-4.64,2.3,9,9,0,0,1,2.5,2.05A20.82,20.82,0,0,1,54,33.34a21.32,21.32,0,0,1,1.46,2.76A5.46,5.46,0,0,1,56,37.8a1.74,1.74,0,0,1-.31,1,2.15,2.15,0,0,1-.84.74,2.64,2.64,0,0,1-1.23.27,2.38,2.38,0,0,1-1.39-.39,3.73,3.73,0,0,1-1-1q-.41-.6-1.1-1.75l-2-3.28a18.05,18.05,0,0,0-1.89-2.75,4.69,4.69,0,0,0-1.7-1.29A5.85,5.85,0,0,0,42.46,29Zm2.81-10.2H42.71a2,2,0,0,0-2,2v2.72a2,2,0,0,0,2,2h2.43a12.36,12.36,0,0,0,3-.31,3.49,3.49,0,0,0,1.84-1,3,3,0,0,0,.64-2,3.07,3.07,0,0,0-1.94-2.93A10.23,10.23,0,0,0,45.27,18.78Z"/><path class="cls-2" d="M80,29H69.64a2,2,0,0,0-1.91,2.54,7.52,7.52,0,0,0,.53,1.34,5.94,5.94,0,0,0,5.45,3.38,7.75,7.75,0,0,0,2.12-.27,6.91,6.91,0,0,0,1.86-.85,14.23,14.23,0,0,0,1.66-1.24q.76-.66,2-1.8a2.12,2.12,0,0,1,1.42-.43,2.34,2.34,0,0,1,1.61.54,1.94,1.94,0,0,1,.61,1.54,4.2,4.2,0,0,1-.69,2A8.12,8.12,0,0,1,82.19,38a11.79,11.79,0,0,1-3.48,1.79,15,15,0,0,1-4.81.71q-6.22,0-9.67-3.55t-3.45-9.62A16.06,16.06,0,0,1,61.63,22a11.72,11.72,0,0,1,2.48-4.2,10.78,10.78,0,0,1,4-2.68,14.42,14.42,0,0,1,5.3-.93,12.56,12.56,0,0,1,6.49,1.6A10.5,10.5,0,0,1,84,19.92a10.85,10.85,0,0,1,1.35,5.15q0,2.44-1.39,3.16A8.69,8.69,0,0,1,80,29ZM69.8,25.29h6.93a2,2,0,0,0,1.9-2.55,6.06,6.06,0,0,0-1.33-2.4,5.35,5.35,0,0,0-4.08-1.64,5.17,5.17,0,0,0-4,1.67,6.45,6.45,0,0,0-1.34,2.34A2,2,0,0,0,69.8,25.29Z"/><path class="cls-5" d="M101.32,35.7l-1.87-7.41a1,1,0,0,0-2,.25V37a3,3,0,0,1-.62,2.09,2.28,2.28,0,0,1-3.27,0A3,3,0,0,1,92.91,37V17.79a2.41,2.41,0,0,1,.83-2.14A4,4,0,0,1,96,15.09h1.52a5.81,5.81,0,0,1,2,.25,1.67,1.67,0,0,1,.92.89,13.93,13.93,0,0,1,.68,2.1l2.53,9.54a1,1,0,0,0,2,0l2.53-9.54a13.84,13.84,0,0,1,.68-2.1,1.67,1.67,0,0,1,.92-.89,5.8,5.8,0,0,1,2-.25h1.52a4,4,0,0,1,2.23.55,2.41,2.41,0,0,1,.83,2.14V37a3.05,3.05,0,0,1-.62,2.09,2.12,2.12,0,0,1-1.66.69,2.07,2.07,0,0,1-1.61-.69,3,3,0,0,1-.63-2.09V28.54a1,1,0,0,0-2-.25L107.9,35.7q-.38,1.51-.62,2.21a3.05,3.05,0,0,1-.89,1.28,2.58,2.58,0,0,1-1.79.58,2.61,2.61,0,0,1-2.38-1.32,5.39,5.39,0,0,1-.52-1.28Z"/><path class="cls-1" d="M101.32,35.7l-1.87-7.41a1,1,0,0,0-2,.25V37a3,3,0,0,1-.62,2.09,2.28,2.28,0,0,1-3.27,0A3,3,0,0,1,92.91,37V17.79a2.41,2.41,0,0,1,.83-2.14A4,4,0,0,1,96,15.09h1.52a5.81,5.81,0,0,1,2,.25,1.67,1.67,0,0,1,.92.89,13.93,13.93,0,0,1,.68,2.1l2.53,9.54a1,1,0,0,0,2,0l2.53-9.54a13.84,13.84,0,0,1,.68-2.1,1.67,1.67,0,0,1,.92-.89,5.8,5.8,0,0,1,2-.25h1.52a4,4,0,0,1,2.23.55,2.41,2.41,0,0,1,.83,2.14V37a3.05,3.05,0,0,1-.62,2.09,2.12,2.12,0,0,1-1.66.69,2.07,2.07,0,0,1-1.61-.69,3,3,0,0,1-.63-2.09V28.54a1,1,0,0,0-2-.25L107.9,35.7q-.38,1.51-.62,2.21a3.05,3.05,0,0,1-.89,1.28,2.58,2.58,0,0,1-1.79.58,2.61,2.61,0,0,1-2.38-1.32,5.39,5.39,0,0,1-.52-1.28Z"/><path class="cls-1" d="M171,35.7l-1.87-7.41a1,1,0,0,0-2,.25V37a3,3,0,0,1-.62,2.09,2.28,2.28,0,0,1-3.27,0,3,3,0,0,1-.63-2.09V17.79a2.41,2.41,0,0,1,.83-2.14,4,4,0,0,1,2.23-.55h1.52a5.81,5.81,0,0,1,2,.25,1.67,1.67,0,0,1,.92.89,13.93,13.93,0,0,1,.68,2.1l2.53,9.54a1,1,0,0,0,2,0l2.53-9.54a13.84,13.84,0,0,1,.68-2.1,1.67,1.67,0,0,1,.92-.89,5.8,5.8,0,0,1,2-.25h1.52a4,4,0,0,1,2.23.55,2.41,2.41,0,0,1,.83,2.14V37a3.05,3.05,0,0,1-.62,2.09,2.12,2.12,0,0,1-1.66.69,2.07,2.07,0,0,1-1.61-.69,3,3,0,0,1-.63-2.09V28.54a1,1,0,0,0-2-.25l-1.86,7.41q-.38,1.51-.62,2.21a3.05,3.05,0,0,1-.89,1.28,2.58,2.58,0,0,1-1.79.58,2.61,2.61,0,0,1-2.38-1.32,5.39,5.39,0,0,1-.52-1.28Z"/><path class="cls-1" d="M123.25,36.77V17.65a3.22,3.22,0,0,1,.68-2.24,2.27,2.27,0,0,1,1.75-.74,2.34,2.34,0,0,1,1.8.74,3.19,3.19,0,0,1,.69,2.24V36.77a3.22,3.22,0,0,1-.69,2.25,2.33,2.33,0,0,1-1.8.74,2.26,2.26,0,0,1-1.75-.75A3.23,3.23,0,0,1,123.25,36.77Z"/><path class="cls-1" d="M135.39,29.32V17.65a3.25,3.25,0,0,1,.67-2.24,2.26,2.26,0,0,1,1.76-.74,2.32,2.32,0,0,1,1.81.74,3.25,3.25,0,0,1,.67,2.24V29.59a10.89,10.89,0,0,0,.45,3.4,3.93,3.93,0,0,0,1.61,2.12,5.93,5.93,0,0,0,3.24.75q2.88,0,4.07-1.53a7.5,7.5,0,0,0,1.19-4.64v-12a3.27,3.27,0,0,1,.66-2.24,2.27,2.27,0,0,1,1.77-.74,2.34,2.34,0,0,1,1.8.74,3.19,3.19,0,0,1,.69,2.24V29.32a17.27,17.27,0,0,1-.55,4.75,7.34,7.34,0,0,1-2.09,3.34,8.14,8.14,0,0,1-3.08,1.79,13.47,13.47,0,0,1-4.1.56,16.91,16.91,0,0,1-4.82-.6,7.7,7.7,0,0,1-3.29-1.87A7.55,7.55,0,0,1,136,34,16.52,16.52,0,0,1,135.39,29.32Z"/><path class="cls-1" d="M140.62,44.62h3.32v9.49a4.53,4.53,0,0,1-.61,2.36,4.19,4.19,0,0,1-1.71,1.61,5.23,5.23,0,0,1-2.45.57,5,5,0,0,1-3.52-1.14,4.15,4.15,0,0,1-1.25-3.23h3.34a2.28,2.28,0,0,0,.33,1.38,1.3,1.3,0,0,0,1.1.43,1.24,1.24,0,0,0,1.07-.52,2.43,2.43,0,0,0,.38-1.45Z"/><path class="cls-1" d="M158.71,51.82A8.16,8.16,0,0,1,158,55.4a5.54,5.54,0,0,1-2.13,2.4,5.94,5.94,0,0,1-3.15.84,6,6,0,0,1-3.14-.81,5.53,5.53,0,0,1-2.13-2.32,7.92,7.92,0,0,1-.8-3.47v-.78a8.21,8.21,0,0,1,.75-3.59,5.54,5.54,0,0,1,2.14-2.4,6.33,6.33,0,0,1,6.3,0,5.63,5.63,0,0,1,2.14,2.38,8,8,0,0,1,.77,3.54Zm-3.39-.58a5.82,5.82,0,0,0-.69-3.13,2.21,2.21,0,0,0-2-1.07q-2.51,0-2.65,3.76v1a6,6,0,0,0,.67,3.13,2.21,2.21,0,0,0,2,1.09A2.18,2.18,0,0,0,154.63,55a5.82,5.82,0,0,0,.69-3.09Z"/><path class="cls-1" d="M161.38,58.45V44.62h5a7,7,0,0,1,4.06,1,3.25,3.25,0,0,1,1.39,2.84,3.29,3.29,0,0,1-.49,1.83,2.88,2.88,0,0,1-1.45,1.12,2.91,2.91,0,0,1,1.66,1.06,3.09,3.09,0,0,1,.58,1.9,3.66,3.66,0,0,1-1.29,3.05,6.12,6.12,0,0,1-3.81,1Zm3.33-8.07h1.74A2.47,2.47,0,0,0,168,50a1.42,1.42,0,0,0,.46-1.15,1.49,1.49,0,0,0-.5-1.26,2.7,2.7,0,0,0-1.62-.39h-1.63Zm0,2.18v3.32h2.18a2.07,2.07,0,0,0,1.39-.41,1.45,1.45,0,0,0,.48-1.16,1.53,1.53,0,0,0-1.72-1.74Z"/><path class="cls-1" d="M182,54.78a1.37,1.37,0,0,0-.52-1.14,6.48,6.48,0,0,0-1.82-.85,17.41,17.41,0,0,1-2.13-.85q-2.69-1.32-2.69-3.63a3.25,3.25,0,0,1,.67-2,4.34,4.34,0,0,1,1.89-1.37,7.4,7.4,0,0,1,2.76-.49,6.46,6.46,0,0,1,2.68.53,4.25,4.25,0,0,1,1.84,1.52,4,4,0,0,1,.66,2.25H182a1.67,1.67,0,0,0-.52-1.31,2,2,0,0,0-1.4-.46,2.27,2.27,0,0,0-1.41.39,1.16,1.16,0,0,0,.05,2,7.24,7.24,0,0,0,2,.89,12.27,12.27,0,0,1,2.36,1,4,4,0,0,1,2.24,3.56A3.38,3.38,0,0,1,184,57.61a6.08,6.08,0,0,1-3.75,1,7.44,7.44,0,0,1-3-.6,4.59,4.59,0,0,1-2.05-1.65,4.31,4.31,0,0,1-.69-2.42h3.34a2.12,2.12,0,0,0,.57,1.64,2.72,2.72,0,0,0,1.87.53,2.15,2.15,0,0,0,1.31-.36A1.18,1.18,0,0,0,182,54.78Z"/><path d="M19.06,52.1H17.21v5H16v-5H14.13v-1h4.94Z"/><path d="M20.87,53.13a1.5,1.5,0,0,1,1.2-.57q1.46,0,1.49,1.7v2.88h-1.2V54.29a.84.84,0,0,0-.17-.57.71.71,0,0,0-.55-.18.82.82,0,0,0-.77.41v3.2h-1.2V50.75h1.2Z"/><path d="M26.54,57.23a2.21,2.21,0,0,1-1.61-.61A2.16,2.16,0,0,1,24.3,55v-.12a2.72,2.72,0,0,1,.26-1.21,1.93,1.93,0,0,1,.74-.82,2.09,2.09,0,0,1,1.1-.29,1.87,1.87,0,0,1,1.45.58,2.37,2.37,0,0,1,.53,1.65v.49H25.52a1.12,1.12,0,0,0,.35.71,1.06,1.06,0,0,0,.74.27,1.3,1.3,0,0,0,1.09-.5l.59.66a1.8,1.8,0,0,1-.73.6A2.4,2.4,0,0,1,26.54,57.23Zm-.14-3.7a.75.75,0,0,0-.58.24,1.26,1.26,0,0,0-.29.69h1.67v-.1a.9.9,0,0,0-.22-.62A.77.77,0,0,0,26.4,53.53Z"/><path d="M33.51,54.93h-1v2.22H31.27V51.08h2.25a2.54,2.54,0,0,1,1.66.48,1.65,1.65,0,0,1,.58,1.35,1.87,1.87,0,0,1-.27,1,1.84,1.84,0,0,1-.81.66L36,57.08v.06H34.65Zm-1-1h1a1,1,0,0,0,.73-.24.85.85,0,0,0,.26-.66.91.91,0,0,0-.24-.67,1,1,0,0,0-.75-.25h-1Z"/><path d="M36.62,51.47A.59.59,0,0,1,36.8,51a.78.78,0,0,1,1,0,.64.64,0,0,1,0,.9.77.77,0,0,1-1,0A.59.59,0,0,1,36.62,51.47Zm1.28,5.67H36.69v-4.5H37.9Z"/><path d="M38.72,54.86a2.64,2.64,0,0,1,.49-1.67,1.6,1.6,0,0,1,1.33-.63,1.4,1.4,0,0,1,1.15.51l0-.42h1.09V57a1.92,1.92,0,0,1-.27,1,1.72,1.72,0,0,1-.75.67,2.66,2.66,0,0,1-1.14.23,2.46,2.46,0,0,1-1-.2,1.72,1.72,0,0,1-.71-.51l.53-.73a1.41,1.41,0,0,0,1.09.5,1,1,0,0,0,.75-.26,1,1,0,0,0,.27-.73v-.24a1.39,1.39,0,0,1-1.09.47,1.59,1.59,0,0,1-1.31-.63,2.64,2.64,0,0,1-.5-1.68Zm1.2.09a1.64,1.64,0,0,0,.25,1,.78.78,0,0,0,.67.35.84.84,0,0,0,.79-.41v-1.9a.83.83,0,0,0-.78-.41.79.79,0,0,0-.68.35A1.85,1.85,0,0,0,39.92,54.95Z"/><path d="M44.93,53.13a1.5,1.5,0,0,1,1.2-.57q1.46,0,1.49,1.7v2.88h-1.2V54.29a.84.84,0,0,0-.17-.57.71.71,0,0,0-.55-.18.82.82,0,0,0-.77.41v3.2h-1.2V50.75h1.2Z"/><path d="M50,51.53v1.11h.77v.88H50v2.25a.54.54,0,0,0,.1.36.48.48,0,0,0,.37.11,1.9,1.9,0,0,0,.35,0v.91a2.47,2.47,0,0,1-.73.11,1.15,1.15,0,0,1-1.29-1.28V53.52H48.1v-.88h.66V51.53Z"/><path d="M54.85,55v2.13H53.6V51.08H56a2.73,2.73,0,0,1,1.2.25A1.84,1.84,0,0,1,58,52a2,2,0,0,1,.28,1,1.74,1.74,0,0,1-.61,1.4,2.54,2.54,0,0,1-1.69.51Zm0-1H56a1.1,1.1,0,0,0,.76-.23A.85.85,0,0,0,57,53.1a1,1,0,0,0-.26-.72A1,1,0,0,0,56,52.1H54.85Z"/><path d="M60.29,57.14H59.08V50.75h1.21Z"/><path d="M63.89,57.14a1.35,1.35,0,0,1-.12-.4,1.46,1.46,0,0,1-1.14.49,1.6,1.6,0,0,1-1.1-.38,1.23,1.23,0,0,1-.43-1,1.27,1.27,0,0,1,.53-1.1,2.61,2.61,0,0,1,1.53-.39h.55v-.26a.74.74,0,0,0-.16-.5.63.63,0,0,0-.51-.19.72.72,0,0,0-.48.15.5.5,0,0,0-.17.4H61.2a1.2,1.2,0,0,1,.24-.72,1.6,1.6,0,0,1,.68-.52,2.49,2.49,0,0,1,1-.19,2,2,0,0,1,1.32.42,1.46,1.46,0,0,1,.49,1.17v2a2.15,2.15,0,0,0,.18,1v.07Zm-1-.84a1,1,0,0,0,.49-.12.78.78,0,0,0,.33-.32V55.1h-.45q-.9,0-1,.62v.07a.48.48,0,0,0,.16.37A.61.61,0,0,0,62.9,56.31Z"/><path d="M67.72,56.26a.79.79,0,0,0,.54-.18.64.64,0,0,0,.22-.49h1.13a1.54,1.54,0,0,1-.25.84,1.65,1.65,0,0,1-.67.59,2.11,2.11,0,0,1-.94.21,2,2,0,0,1-1.52-.61,2.43,2.43,0,0,1-.56-1.7v-.08a2.4,2.4,0,0,1,.55-1.66,1.93,1.93,0,0,1,1.52-.62,1.89,1.89,0,0,1,1.35.48,1.71,1.71,0,0,1,.52,1.28H68.48a.83.83,0,0,0-.22-.57.8.8,0,0,0-1.18.09,1.78,1.78,0,0,0-.21,1V55a1.8,1.8,0,0,0,.21,1A.73.73,0,0,0,67.72,56.26Z"/><path d="M72.37,57.23a2.21,2.21,0,0,1-1.61-.61A2.16,2.16,0,0,1,70.13,55v-.12a2.72,2.72,0,0,1,.26-1.21,1.93,1.93,0,0,1,.74-.82,2.09,2.09,0,0,1,1.1-.29,1.87,1.87,0,0,1,1.45.58,2.37,2.37,0,0,1,.53,1.65v.49H71.35a1.12,1.12,0,0,0,.35.71,1.06,1.06,0,0,0,.74.27,1.3,1.3,0,0,0,1.09-.5l.59.66a1.8,1.8,0,0,1-.73.6A2.4,2.4,0,0,1,72.37,57.23Zm-.14-3.7a.75.75,0,0,0-.58.24,1.26,1.26,0,0,0-.29.69H73v-.1a.9.9,0,0,0-.22-.62A.77.77,0,0,0,72.23,53.53Z"/><path d="M75.21,58.66l-.63-.33.15-.27a2.17,2.17,0,0,0,.29-1v-.93h1V57a2.15,2.15,0,0,1-.23.93A2.39,2.39,0,0,1,75.21,58.66Z"/><path d="M82.6,55.89H80.41L80,57.14H78.67l2.25-6.06h1.16l2.27,6.06H83Zm-1.85-1h1.51l-.76-2.27Z"/><path d="M86.21,51.53v1.11H87v.88h-.77v2.25a.54.54,0,0,0,.1.36.48.48,0,0,0,.37.11,1.9,1.9,0,0,0,.35,0v.91a2.47,2.47,0,0,1-.73.11A1.15,1.15,0,0,1,85,55.95V53.52h-.66v-.88H85V51.53Z"/><path d="M92.09,54.93h-1v2.22H89.85V51.08H92.1a2.54,2.54,0,0,1,1.66.48,1.65,1.65,0,0,1,.58,1.35,1.87,1.87,0,0,1-.27,1,1.84,1.84,0,0,1-.81.66l1.31,2.48v.06H93.23Zm-1-1h1a1,1,0,0,0,.73-.24.85.85,0,0,0,.26-.66.91.91,0,0,0-.24-.67,1,1,0,0,0-.75-.25h-1Z"/><path d="M95.2,51.47a.59.59,0,0,1,.18-.45.78.78,0,0,1,1,0,.64.64,0,0,1,0,.9.77.77,0,0,1-1,0A.59.59,0,0,1,95.2,51.47Zm1.28,5.67H95.27v-4.5h1.21Z"/><path d="M97.29,54.86a2.64,2.64,0,0,1,.49-1.67,1.6,1.6,0,0,1,1.33-.63,1.4,1.4,0,0,1,1.15.51l0-.42h1.09V57a1.92,1.92,0,0,1-.27,1,1.72,1.72,0,0,1-.75.67,2.66,2.66,0,0,1-1.14.23,2.46,2.46,0,0,1-1-.2,1.72,1.72,0,0,1-.71-.51l.53-.73a1.41,1.41,0,0,0,1.09.5,1,1,0,0,0,.75-.26,1,1,0,0,0,.27-.73v-.24a1.39,1.39,0,0,1-1.09.47,1.59,1.59,0,0,1-1.31-.63,2.64,2.64,0,0,1-.5-1.68Zm1.2.09a1.64,1.64,0,0,0,.25,1,.78.78,0,0,0,.67.35.84.84,0,0,0,.79-.41v-1.9a.83.83,0,0,0-.78-.41.79.79,0,0,0-.68.35A1.85,1.85,0,0,0,98.49,54.95Z"/><path d="M103.51,53.13a1.5,1.5,0,0,1,1.2-.57q1.46,0,1.49,1.7v2.88H105V54.29a.84.84,0,0,0-.17-.57.71.71,0,0,0-.55-.18.82.82,0,0,0-.77.41v3.2h-1.2V50.75h1.2Z"/><path d="M108.54,51.53v1.11h.77v.88h-.77v2.25a.54.54,0,0,0,.1.36.48.48,0,0,0,.37.11,1.9,1.9,0,0,0,.35,0v.91a2.47,2.47,0,0,1-.73.11,1.15,1.15,0,0,1-1.29-1.28V53.52h-.66v-.88h.66V51.53Z"/><path d="M116.49,52.1h-1.86v5h-1.25v-5h-1.83v-1h4.94Z"/><path d="M117.12,51.47a.59.59,0,0,1,.18-.45.78.78,0,0,1,1,0,.64.64,0,0,1,0,.9.77.77,0,0,1-1,0A.59.59,0,0,1,117.12,51.47Zm1.28,5.67h-1.21v-4.5h1.21Z"/><path d="M120.51,52.64l0,.5a1.58,1.58,0,0,1,1.29-.59,1.2,1.2,0,0,1,1.19.69,1.55,1.55,0,0,1,1.35-.69,1.34,1.34,0,0,1,1.09.43,2,2,0,0,1,.36,1.28v2.88h-1.21V54.27a.86.86,0,0,0-.15-.56.66.66,0,0,0-.53-.18.75.75,0,0,0-.75.52v3.09H122V54.28a.85.85,0,0,0-.15-.57.67.67,0,0,0-.52-.17.78.78,0,0,0-.74.42v3.18h-1.2v-4.5Z"/><path d="M128.83,57.23a2.21,2.21,0,0,1-1.61-.61A2.16,2.16,0,0,1,126.6,55v-.12a2.72,2.72,0,0,1,.26-1.21,1.93,1.93,0,0,1,.74-.82,2.09,2.09,0,0,1,1.1-.29,1.87,1.87,0,0,1,1.45.58,2.37,2.37,0,0,1,.53,1.65v.49h-2.87a1.12,1.12,0,0,0,.35.71,1.06,1.06,0,0,0,.74.27,1.3,1.3,0,0,0,1.09-.5l.59.66a1.8,1.8,0,0,1-.73.6A2.4,2.4,0,0,1,128.83,57.23Zm-.14-3.7a.75.75,0,0,0-.58.24,1.26,1.26,0,0,0-.29.69h1.67v-.1a.9.9,0,0,0-.22-.62A.77.77,0,0,0,128.7,53.53Z"/></svg>